/* XPM */
static char *fe43759c001c4a049bbbabe6943984d7a242a0UeLpfXDmFj[] = {
/* columns rows colors chars-per-pixel */
"40 40 31 1 ",
"  c #808080",
". c gray53",
"X c gray54",
"o c gray56",
"O c #939393",
"+ c #959595",
"@ c gray60",
"# c gray62",
"$ c gray63",
"% c #A4A4A4",
"& c #A9A9A9",
"* c gray68",
"= c #B1B1B1",
"- c gray71",
"; c #BBBBBB",
": c gray75",
"> c gray77",
", c #C6C6C6",
"< c gray79",
"1 c #CDCDCD",
"2 c #D2D2D2",
"3 c #D7D7D7",
"4 c #D8D8D8",
"5 c gainsboro",
"6 c #E6E6E6",
"7 c #EAEAEA",
"8 c #EEEEEE",
"9 c gray94",
"0 c gray96",
"q c #FBFBFB",
"w c white",
/* pixels */
"wwwwwwwwwwwwwwwqwwwwqwwwwwwwwwwwwwwwwwww",
"wwwwwwwwwwwwwwwwwqw,%0wwwqwwwwwwwwwwwwww",
"wwwwwwwwwwwwwwwwww1oX&qwwwqwwwwwwwwwwwww",
"wwwwwwwwqwwwwwwqw3XoOX*wwwwwwwwqwwqwwwww",
"wwwqwwwqwqqwqwww4ooOoOX=wwqwqwqwqwwwwwww",
"wwwwwqwwwwwwwww5oooooOO.;wwwwwwwwwwwwwww",
"wwwwww4;,<12343+oOoOOooOX:5331<,,:qwwwww",
"wwwwww: X.XXooooOoOooOoOOXooXXX..O0wwwww",
"wwwwww,XOOoOoOoooOoOoOooOooOOOoOo#qwwwww",
"wwwwqw<XOOOoOoOoOoOoOoOOoOOooOoOo#wwwwww",
"wwwwww1.OOoOoOoOoOoOoOOooOoOOoOoo%wwwwww",
"wwwwww1XOoOoOoOoOoOoOooOOoOooOoOo%wwqwww",
"wwwwqw2ooOoOoOoOoOoOOoOoOoOoOoOOX&wwqwww",
"wwwwww3XOoOoOoOoOoOooOoOoOoOoOoOo*wwwwww",
"wqwwqw2oOOoOoOoOoOoOOoOoOoOoOooOX&wwqwwq",
"wwwqw5+oooOoOoOoOoOooOoOoOoOoOoOOX;wwwww",
"wwww4ooOoOoOoOoOoOoOoOoOoOoOoOooOoX=wwww",
"qww2ooooOoOoOoOoOoOoOoOoOoOoOooOoOO.*www",
"ww1XoOoOoOoOoOoOoOoOoOoOoOoOOoOoooOOX&qw",
"w,oooooOOoOoOoOoOoOoOoOoOoOooOoOOoooOX%9",
"q#XOOoOooOoOoOoOoOoOoOoOOoOoOoOoOoOoOo.3",
"w9%XOooOOoOoOoOoOoOoOoOooOoOoOoOoOoOoo3w",
"qwq&XOOooOoOoOoOoOoOoOoOOoOoOoOoooOoo4ww",
"wwww*.OOooOoOoOoOoOoOoOooOoOoOoOoOo+6wqw",
"wwwww-XOOooOoOoOOoOoOoOoOoOoOoOooo@7wqww",
"wwwqww;XoOOoOoOooOoOoOoOoOoOoOoOo#8wwwwq",
"wwqwww5oOooOoOoOOoOoOoOoOoOooOOOX=wqwwww",
"wwwwqw2XOoOoOoOooOoOoOoOoOoOOoOoo&wwqwww",
"wwwwww2XOooOOoOoOoOoOoOooOoOoOoOX%wwwwww",
"wwwwqw1XOOOooOoOoOoOoOoOOoOoOoOoo%wwqwww",
"wwwwww1.OooOOoOoOoOoOoOooOoOOooOo%qwwwww",
"wwwwqw,XOoOoOOoOoOoOoOoOooOOoOoOo#qwwwww",
"wwwwqw,.oXoo.oooOoOOoOOooOXXooXoX@qwwwww",
"wwwwww>O##%%%*%ooOooOooOo+*&%%##@#qwwwww",
"wwwqqwqqqqqwwww-X+oOooOo+7wwqwqqq0wwqwww",
"wwwwwwwwwwwwwwww&.OooOoO6wwwwwwwwwwwwwww",
"wwwwwwwqwwqwwwqwq&XOOo+4wwwwwqwwwwwwwwww",
"wwwwwwwwwwwwqwwwwq%oOo4wqwqwwwwwwwwwwwww",
"wwwwwwwwwwwwwwwwqw9%.3wqwwwwwwwwwwwwwwww",
"wwwwwwwwwwwwwwwqwww72wqwwwwwwwwwwwwwwwww"
};
